<?xml version="1.0" encoding="UTF-8"?>
<svg width="384px" height="513px" viewBox="0 0 384 513" version="1.1" xmlns="http://www.w3.org/2000/svg" xmlns:xlink="http://www.w3.org/1999/xlink">
    <!-- Generator: Sketch 52.1 (67048) - http://www.bohemiancoding.com/sketch -->
    <title>Shape</title>
    <desc>Created with Sketch.</desc>
    <g id="Page-1" stroke="none" stroke-width="1" fill="none" fill-rule="evenodd">
        <g id="pdf" fill="#FFFFFF" fill-rule="nonzero">
            <path d="M369.9,98.9 L286,15 C277,6 264.8,0.9 252.1,0.9 L48,0.9 C21.5,1 0,22.5 0,49 L0,465 C0,491.5 21.5,513 48,513 L336,513 C362.5,513 384,491.5 384,465 L384,132.9 C384,120.2 378.9,107.9 369.9,98.9 Z M332.1,129 L256,129 L256,52.9 L332.1,129 Z M48,465 L48,49 L208,49 L208,153 C208,166.3 218.7,177 232,177 L336,177 L336,465 L48,465 Z M298.2,321.3 C286,309.3 251.2,312.6 233.8,314.8 C216.6,304.3 205.1,289.8 197,268.5 C200.9,252.4 207.1,227.9 202.4,212.5 C198.2,186.3 164.6,188.9 159.8,206.6 C155.4,222.7 159.4,245.1 166.8,273.7 C156.8,297.6 141.9,329.7 131.4,348.1 C111.4,358.4 84.4,374.3 80.4,394.3 C77.1,410.1 106.4,449.5 156.5,363.1 C178.9,355.7 203.3,346.6 224.9,343 C243.8,353.2 265.9,360 280.7,360 C306.2,360 308.7,331.8 298.2,321.3 Z M100.1,399.1 C105.2,385.4 124.6,369.6 130.5,364.1 C111.5,394.4 100.1,399.8 100.1,399.1 Z M181.7,208.5 C189.1,208.5 188.4,240.6 183.5,249.3 C179.1,235.4 179.2,208.5 181.7,208.5 Z M157.3,345.1 C167,328.2 175.3,308.1 182,290.4 C190.3,305.5 200.9,317.6 212.1,325.9 C191.3,330.2 173.2,339 157.3,345.1 Z M288.9,340.1 C288.9,340.1 283.9,346.1 251.6,332.3 C286.7,329.7 292.5,337.7 288.9,340.1 Z" id="Shape"></path>
        </g>
    </g>
</svg>